<svg class="icon" viewBox="0 0 1024 1024" xmlns="http://www.w3.org/2000/svg" width="200" height="200"><path d="M318.37 143.7c12.277 25.558 36.362 38.476 58.024 53.852 47.617 22.25 69.764 75.305 117.572 97.33l33.61 28.951c38.093 14.147 54.006 56.847 91.77 71.478l47.168 41.263c38.215 21.54 65.972 53.072 86.976 91.01 8 48.258 33.453 83.53 78.04 104.533l105.226 105.988c12.12 29.436 39.133 46.215 58.873 69.175 9.644 10.51 14.233 22.043 7.359 35.947-13.506 17.523-30.58 14.926-48.328 8.536l.64.156c-41.21 43.86 38.995 49.315 26.545 84.119-13.09 15.185-29.124 15.203-46.388 9.229-25.47-17.16-40.397-47.202-70.993-57.938l-23.583-19.48c-43.29-16.536-60.605-65.642-103.616-82.629l-21.99-17.852c-34.631-1.732-64.726-16.692-94.733-32.103a99.806 99.806 0 0 1-18.528-17.211C572.89 669.95 515.437 654.54 480.442 613.19c-17.436-28.674-40.102-22.51-63.963-9.61-19.41-14.631-32.778-36.691-57.14-44.881l-35.878-31.168c-47.514-20.311-67.41-74.214-115.044-94.283l-2.667-6.805-7.29-.658C133.615 381.684 81.27 324.82 33.082 263.714c-4.104-28.76-10.181-57.435-11.601-86.335-.953-19.047-19.047-58.872 34.06-27.514 23.444 13.852 25.435-20.605 24.466-46.25-.727-19.358-56.448-43.704 1.039-60.932C108.594 36.259 114.22-6.2 149.908.779l3.1 7.22 7.757 1.438c63.72 31.635 94.68 101.745 157.605 134.264z"/><path d="M637.303 439.206q-34.094 36.83-68.223 73.677c-33.332 59.721-99.633 90.871-131.597 151.787L278.18 876.923c-43.15 67.08-113.953 101.26-174.886 147.077-11.238-5.905-6.303-14.39-3.619-22.51 14.303-36.934 56.535-51.946 70.11-89.504 21.956-17.644 16.173-37.713 5.074-58.231-36.882-.9-43.046 65.175-90.404 41.436-23.359-79.929 35.843-137.381 55.98-205.465 12.814-82.266 80.552-119.477 136.446-166.436l24.865-25.973c80.292-79.877 166.869-152.723 253.29-225.742l21.697-18.787c56.985-40.726 106.455-88.967 146.142-146.921 37.367 14.371 62.595-55.22 88.638-24.588 26.527 31.167 15.133 82.733 7.722 125.156-3.307 18.925-14.978 36.362-22.856 54.491-43.012 68.344-117.52 108.62-159.077 178.28z"/></svg>